# xmcd CD database file
#
# Track frame offsets:
#        150
#        18502
#        34432
#        53180
#        67537
#        80607
#        99155
#        120325
#        137450
#        155945
#        173087
#
# Disc length: 2497 seconds
#
# Revision: 0
# Processed by: cddbd v1.5.2PL0 Copyright (c) Steve Scherf et al.
# Submitted via: CUERipper 2.0.9
#
DISCID=8409bf0b
DTITLE=The Marshall Tucker Band - Still Smokin'
DYEAR=1992
DGENRE=Sothern Rock
TTITLE0=Frontline 
TTITLE1=Two Hearts Fallen
TTITLE2=Tan Yard Road 
TTITLE3=Full Moon Rising 
TTITLE4=Carolina Party 
TTITLE5=I Love You
TTITLE6=Can't Take It Anymore
TTITLE7=Driving You Out Of My Mind
TTITLE8=Southern Spirit
TTITLE9=Let Me Come Home
TTITLE10=Untitled Bonus Song
EXTD=
EXTT0=
EXTT1=
EXTT2=
EXTT3=
EXTT4=
EXTT5=
EXTT6=
EXTT7=
EXTT8=
EXTT9=
EXTT10=
PLAYORDER=
